<?xml version="1.0" encoding="UTF-8" standalone="no"?>
<!-- Created with Inkscape (http://www.inkscape.org/) -->

<svg
   width="48"
   height="48"
   viewBox="0 0 48 48"
   version="1.1"
   id="svg1"
   xml:space="preserve"
   inkscape:version="1.3.2 (091e20e, 2023-11-25, custom)"
   sodipodi:docname="devmode icon.svg"
   inkscape:export-filename="..\src\img\devmode32.svg"
   inkscape:export-xdpi="64"
   inkscape:export-ydpi="64"
   xmlns:inkscape="http://www.inkscape.org/namespaces/inkscape"
   xmlns:sodipodi="http://sodipodi.sourceforge.net/DTD/sodipodi-0.dtd"
   xmlns="http://www.w3.org/2000/svg"
   xmlns:svg="http://www.w3.org/2000/svg"><sodipodi:namedview
     id="namedview1"
     pagecolor="#ffffff"
     bordercolor="#000000"
     borderopacity="0.25"
     inkscape:showpageshadow="2"
     inkscape:pageopacity="0.0"
     inkscape:pagecheckerboard="true"
     inkscape:deskcolor="#d1d1d1"
     inkscape:document-units="px"
     inkscape:zoom="11.991353"
     inkscape:cx="18.888612"
     inkscape:cy="26.26893"
     inkscape:window-width="1920"
     inkscape:window-height="1010"
     inkscape:window-x="-6"
     inkscape:window-y="318"
     inkscape:window-maximized="1"
     inkscape:current-layer="layer1" /><defs
     id="defs1" /><g
     inkscape:label="Layer 1"
     inkscape:groupmode="layer"
     id="layer1"><rect
       style="display:none;opacity:1;fill:#bb3e3f;fill-opacity:1;stroke:none;stroke-width:0.1;stroke-linecap:round;stroke-linejoin:round;stroke-dasharray:none;stroke-opacity:1;paint-order:stroke fill markers"
       id="rect9"
       width="48"
       height="48"
       x="0"
       y="0" /><g
       id="g9"
       transform="matrix(1.1536962,0,0,1.1536962,-4.7794855,-3.4061854)"><path
         id="rect1"
         style="display:inline;opacity:1;fill:#ffffff;fill-opacity:1;stroke:#ffffff;stroke-width:0.1;stroke-linecap:round;stroke-linejoin:round;stroke-dasharray:none;stroke-opacity:1;paint-order:stroke fill markers"
         d="m 17.985371,32.977913 -0.207231,9.89e-4 -9.8518731,2.29e-4 -10.1807516,-4.84e-4 -3.9974057,-6.2e-5 -5.2865646,3.99e-4 a 7.1056514,7.1056514 0 0 1 0.142654,5.680036 l 5.3902239,4.87e-4 8.5972671,5.26e-4 0.00134,-0.0014 3.7390564,0.0013 11.4464006,-6.19e-4 0.262533,3.7e-5 a 10.549269,10.549269 0 0 0 -0.05565,-5.68139 z"
         inkscape:label="pen body"
         transform="rotate(-43.199221)" /><path
         id="rect2"
         style="display:inline;opacity:1;fill:#ffffff;fill-opacity:1;stroke-width:6.80511;stroke-linecap:round;stroke-linejoin:round;paint-order:stroke fill markers"
         d="M 3.2689185,18.670683 A 5.2120891,5.2120891 0 0 0 1.6498344,17.54369 l 0.2781444,4.167451 -4.9121371,0.329822 -0.280083,-4.197898 a 5.2120891,5.2120891 0 0 0 -0.8335187,0.628153 5.2120891,5.2120891 0 0 0 -0.2008838,7.368021 5.2120891,5.2120891 0 0 0 1.670424,1.169831 l 7.813e-4,3.797969 4.9091959,0.289043 4.454e-4,-4.455565 a 5.2120891,5.2120891 0 0 0 0.788593,-0.601737 5.2120891,5.2120891 0 0 0 0.1981227,-7.368097 z m -0.985486,22.262252 -4.9106138,-0.2877 -3.013e-4,7.562728 c 0,1.360042 1.094927,2.452451 2.45496825,2.452451 1.36004125,0 2.45521225,-1.094851 2.45521225,-2.454893 z"
         transform="rotate(-46.551006)" /><path
         style="display:inline;opacity:1;fill:#ffffff;fill-opacity:1;stroke:#ffffff;stroke-width:0.798034;stroke-linecap:round;stroke-linejoin:round;stroke-dasharray:none;stroke-opacity:1;paint-order:stroke fill markers"
         id="path6"
         sodipodi:type="arc"
         sodipodi:cx="12.314612"
         sodipodi:cy="37.798523"
         sodipodi:rx="4.1854415"
         sodipodi:ry="4.2352681"
         sodipodi:start="4.8520153"
         sodipodi:end="6.143559"
         sodipodi:arc-type="slice"
         d="m 12.897113,33.604472 a 4.1854415,4.2352681 0 0 1 3.562208,3.604616 l -4.144709,0.589435 z"
         inkscape:label="pen tip" /></g></g></svg>
